<svg id="visual" viewBox="0 0 900 450" width="900" height="450" xmlns="http://www.w3.org/2000/svg" xmlns:xlink="http://www.w3.org/1999/xlink" version="1.1"><rect x="0" y="0" width="900" height="450" fill="#202731"></rect><path d="M0 352L18.8 345C37.7 338 75.3 324 112.8 319.7C150.3 315.3 187.7 320.7 225.2 327.2C262.7 333.7 300.3 341.3 337.8 339.7C375.3 338 412.7 327 450.2 318.3C487.7 309.7 525.3 303.3 562.8 300.7C600.3 298 637.7 299 675.2 299.2C712.7 299.3 750.3 298.7 787.8 303.5C825.3 308.3 862.7 318.7 881.3 323.8L900 329L900 451L881.3 451C862.7 451 825.3 451 787.8 451C750.3 451 712.7 451 675.2 451C637.7 451 600.3 451 562.8 451C525.3 451 487.7 451 450.2 451C412.7 451 375.3 451 337.8 451C300.3 451 262.7 451 225.2 451C187.7 451 150.3 451 112.8 451C75.3 451 37.7 451 18.8 451L0 451Z" fill="#fa7268"></path><path d="M0 359L18.8 359.7C37.7 360.3 75.3 361.7 112.8 362.7C150.3 363.7 187.7 364.3 225.2 365.3C262.7 366.3 300.3 367.7 337.8 362.5C375.3 357.3 412.7 345.7 450.2 341.8C487.7 338 525.3 342 562.8 351.5C600.3 361 637.7 376 675.2 375.3C712.7 374.7 750.3 358.3 787.8 351.8C825.3 345.3 862.7 348.7 881.3 350.3L900 352L900 451L881.3 451C862.7 451 825.3 451 787.8 451C750.3 451 712.7 451 675.2 451C637.7 451 600.3 451 562.8 451C525.3 451 487.7 451 450.2 451C412.7 451 375.3 451 337.8 451C300.3 451 262.7 451 225.2 451C187.7 451 150.3 451 112.8 451C75.3 451 37.7 451 18.8 451L0 451Z" fill="#fe4e63"></path><path d="M0 404L18.8 405.7C37.7 407.3 75.3 410.7 112.8 414.5C150.3 418.3 187.7 422.7 225.2 421.7C262.7 420.7 300.3 414.3 337.8 408.5C375.3 402.7 412.7 397.3 450.2 399.7C487.7 402 525.3 412 562.8 416.7C600.3 421.3 637.7 420.7 675.2 416C712.7 411.3 750.3 402.7 787.8 398.8C825.3 395 862.7 396 881.3 396.5L900 397L900 451L881.3 451C862.7 451 825.3 451 787.8 451C750.3 451 712.7 451 675.2 451C637.7 451 600.3 451 562.8 451C525.3 451 487.7 451 450.2 451C412.7 451 375.3 451 337.8 451C300.3 451 262.7 451 225.2 451C187.7 451 150.3 451 112.8 451C75.3 451 37.7 451 18.8 451L0 451Z" fill="#ff0066"></path></svg>