<svg id="visual" viewBox="0 0 900 450" width="900" height="450" xmlns="http://www.w3.org/2000/svg" xmlns:xlink="http://www.w3.org/1999/xlink" version="1.1"><rect x="0" y="0" width="900" height="450" fill="#202731"></rect><path d="M0 177L21.5 169.3C43 161.7 86 146.3 128.8 146.7C171.7 147 214.3 163 257.2 164.8C300 166.7 343 154.3 385.8 147.5C428.7 140.7 471.3 139.3 514.2 136.8C557 134.3 600 130.7 642.8 133.5C685.7 136.3 728.3 145.7 771.2 151.5C814 157.3 857 159.7 878.5 160.8L900 162L900 0L878.5 0C857 0 814 0 771.2 0C728.3 0 685.7 0 642.8 0C600 0 557 0 514.2 0C471.3 0 428.7 0 385.8 0C343 0 300 0 257.2 0C214.3 0 171.7 0 128.8 0C86 0 43 0 21.5 0L0 0Z" fill="#fa7268"></path><path d="M0 142L21.5 136.5C43 131 86 120 128.8 115.2C171.7 110.3 214.3 111.7 257.2 111.2C300 110.7 343 108.3 385.8 107.8C428.7 107.3 471.3 108.7 514.2 109.3C557 110 600 110 642.8 112.7C685.7 115.3 728.3 120.7 771.2 125.7C814 130.7 857 135.3 878.5 137.7L900 140L900 0L878.5 0C857 0 814 0 771.2 0C728.3 0 685.7 0 642.8 0C600 0 557 0 514.2 0C471.3 0 428.7 0 385.8 0C343 0 300 0 257.2 0C214.3 0 171.7 0 128.8 0C86 0 43 0 21.5 0L0 0Z" fill="#f3665b"></path><path d="M0 99L21.5 96.2C43 93.3 86 87.7 128.8 89.3C171.7 91 214.3 100 257.2 101C300 102 343 95 385.8 91C428.7 87 471.3 86 514.2 82.7C557 79.3 600 73.7 642.8 74.3C685.7 75 728.3 82 771.2 82.7C814 83.3 857 77.7 878.5 74.8L900 72L900 0L878.5 0C857 0 814 0 771.2 0C728.3 0 685.7 0 642.8 0C600 0 557 0 514.2 0C471.3 0 428.7 0 385.8 0C343 0 300 0 257.2 0C214.3 0 171.7 0 128.8 0C86 0 43 0 21.5 0L0 0Z" fill="#ec594d"></path><path d="M0 58L21.5 56C43 54 86 50 128.8 53.7C171.7 57.3 214.3 68.7 257.2 70.2C300 71.7 343 63.3 385.8 61.2C428.7 59 471.3 63 514.2 67C557 71 600 75 642.8 75.5C685.7 76 728.3 73 771.2 67.3C814 61.7 857 53.3 878.5 49.2L900 45L900 0L878.5 0C857 0 814 0 771.2 0C728.3 0 685.7 0 642.8 0C600 0 557 0 514.2 0C471.3 0 428.7 0 385.8 0C343 0 300 0 257.2 0C214.3 0 171.7 0 128.8 0C86 0 43 0 21.5 0L0 0Z" fill="#e54c3f"></path><path d="M0 42L21.5 40.2C43 38.3 86 34.7 128.8 32.5C171.7 30.3 214.3 29.7 257.2 30.5C300 31.3 343 33.7 385.8 32.7C428.7 31.7 471.3 27.3 514.2 27.3C557 27.3 600 31.7 642.8 32.3C685.7 33 728.3 30 771.2 32.3C814 34.7 857 42.3 878.5 46.2L900 50L900 0L878.5 0C857 0 814 0 771.2 0C728.3 0 685.7 0 642.8 0C600 0 557 0 514.2 0C471.3 0 428.7 0 385.8 0C343 0 300 0 257.2 0C214.3 0 171.7 0 128.8 0C86 0 43 0 21.5 0L0 0Z" fill="#dd3f31"></path></svg>