<svg id="visual" viewBox="0 0 900 450" width="900" height="450" xmlns="http://www.w3.org/2000/svg" xmlns:xlink="http://www.w3.org/1999/xlink" version="1.1"><rect x="0" y="0" width="900" height="450" fill="#202731"></rect><path d="M0 121L21.5 120.8C43 120.7 86 120.3 128.8 123.8C171.7 127.3 214.3 134.7 257.2 130.8C300 127 343 112 385.8 116C428.7 120 471.3 143 514.2 144.5C557 146 600 126 642.8 113.5C685.7 101 728.3 96 771.2 104C814 112 857 133 878.5 143.5L900 154L900 0L878.5 0C857 0 814 0 771.2 0C728.3 0 685.7 0 642.8 0C600 0 557 0 514.2 0C471.3 0 428.7 0 385.8 0C343 0 300 0 257.2 0C214.3 0 171.7 0 128.8 0C86 0 43 0 21.5 0L0 0Z" fill="#fa7268"></path><path d="M0 118L21.5 117.5C43 117 86 116 128.8 114.8C171.7 113.7 214.3 112.3 257.2 101C300 89.7 343 68.3 385.8 57.8C428.7 47.3 471.3 47.7 514.2 57.7C557 67.7 600 87.3 642.8 97.3C685.7 107.3 728.3 107.7 771.2 102.5C814 97.3 857 86.7 878.5 81.3L900 76L900 0L878.5 0C857 0 814 0 771.2 0C728.3 0 685.7 0 642.8 0C600 0 557 0 514.2 0C471.3 0 428.7 0 385.8 0C343 0 300 0 257.2 0C214.3 0 171.7 0 128.8 0C86 0 43 0 21.5 0L0 0Z" fill="#fe4e63"></path><path d="M0 12L21.5 19.8C43 27.7 86 43.3 128.8 45.7C171.7 48 214.3 37 257.2 37.8C300 38.7 343 51.3 385.8 53.5C428.7 55.7 471.3 47.3 514.2 44.7C557 42 600 45 642.8 40.3C685.7 35.7 728.3 23.3 771.2 27.2C814 31 857 51 878.5 61L900 71L900 0L878.5 0C857 0 814 0 771.2 0C728.3 0 685.7 0 642.8 0C600 0 557 0 514.2 0C471.3 0 428.7 0 385.8 0C343 0 300 0 257.2 0C214.3 0 171.7 0 128.8 0C86 0 43 0 21.5 0L0 0Z" fill="#ff0066"></path></svg>